<svg width="558" height="558" viewBox="0 0 558 558" fill="none" xmlns="http://www.w3.org/2000/svg">
<mask id="mask0" mask-type="alpha" maskUnits="userSpaceOnUse" x="0" y="0" width="558" height="558">
<rect width="558" height="558" fill="white"/>
</mask>
<g mask="url(#mask0)">
<path d="M50.3223 443.973H500.529C502.47 443.973 504.059 442.38 504.059 440.434V182.127C504.059 168.327 492.94 157.181 479.175 157.181H71.8532C58.0876 157.181 46.9692 168.327 46.9692 182.127V440.434C46.7927 442.38 48.381 443.973 50.3223 443.973Z" fill="#34414D"/>
<path fill-rule="evenodd" clip-rule="evenodd" d="M67.8408 432.743H483.603V178.071H67.8408V432.743Z" fill="#82D8FF"/>
<path d="M387.868 252.636C403.505 252.636 416.014 239.799 416.014 224.016H359.514C359.514 239.799 372.232 252.636 387.868 252.636Z" fill="#CB1B38"/>
<path d="M443.537 251.794C458.756 251.794 470.848 239.378 470.848 224.227H416.017C416.017 239.378 428.317 251.794 443.537 251.794Z" fill="#EDB900"/>
<path d="M498.157 251.794C513.376 251.794 525.468 239.378 525.468 224.227H470.637C470.845 239.378 483.146 251.794 498.157 251.794Z" fill="#CB1B38"/>
<path d="M53.875 252.636C69.5114 252.636 82.0205 239.799 82.0205 224.016H25.521C25.521 239.799 38.2386 252.636 53.875 252.636Z" fill="#CB1B38"/>
<path d="M110.378 252.636C126.014 252.636 138.732 239.799 138.732 224.016H82.0239C82.0239 239.799 94.7415 252.636 110.378 252.636Z" fill="#EDB900"/>
<path d="M166.038 251.794C181.257 251.794 193.35 239.378 193.35 224.227H138.518C138.518 239.378 150.819 251.794 166.038 251.794Z" fill="#CB1B38"/>
<path d="M331.373 252.636C347.009 252.636 359.518 239.799 359.518 224.016H303.019C303.019 239.799 315.737 252.636 331.373 252.636Z" fill="#EDB900"/>
<path d="M220.87 251.794C236.09 251.794 248.182 239.378 248.182 224.227H193.35C193.35 239.378 205.651 251.794 220.87 251.794Z" fill="#EDB900"/>
<path d="M275.704 251.794C290.923 251.794 303.015 239.378 303.015 224.227H248.184C248.184 239.378 260.484 251.794 275.704 251.794Z" fill="#CB1B38"/>
<path d="M525.885 224.858H25.5205L67.6345 178.14H483.771L525.885 224.858Z" fill="#ED1C24"/>
<path d="M82.0229 224.858L110.377 178.14H154.993L138.522 224.858H82.0229Z" fill="#FFC107"/>
<path d="M193.35 224.858L202.94 178.14H247.556L248.181 224.858H193.35Z" fill="#FFC107"/>
<path d="M303.013 224.858L294.882 178.14H342.625L359.513 224.858H303.013Z" fill="#FFC107"/>
<path d="M416.015 224.858L392.04 178.14H437.906L470.847 224.858H416.015Z" fill="#FFC107"/>
<path d="M54.2033 472.28H503.351C519.764 472.28 533 459.011 533 442.557V441.319H24.5542V442.557C24.5542 459.011 37.7904 472.28 54.2033 472.28Z" fill="#F5F5F5"/>
<path d="M240.575 449.634H325.993C330.405 449.634 334.111 446.096 334.111 441.496H232.633C232.457 446.096 236.163 449.634 240.575 449.634Z" fill="#BABABA"/>
<path opacity="0.2" d="M50.6736 463.08H506.881C519.764 463.08 530.529 453.703 532.647 441.319H533V446.096C533 460.603 521.352 472.28 506.881 472.28H50.6736C36.2021 472.28 24.5542 460.603 24.5542 446.096V441.319H24.9072C27.025 453.703 37.7904 463.08 50.6736 463.08Z" fill="#94C0FF"/>
<path d="M391.636 373.552L403.988 378.822C403.988 378.822 415.347 369.596 429.187 371.567C440.571 373.192 446.97 378.81 450.926 388.693L483.591 406.886L483.864 432.172L323.144 426.901L282.964 394.621L307.333 369.596L391.636 373.552Z" fill="#E3E3E3"/>
<path d="M282.796 356.909C283.813 359.563 284.904 362.241 286.07 364.945H286.095C286.417 364.92 286.74 364.908 287.062 364.895C287.422 364.883 287.781 364.883 288.141 364.883C288.6 364.883 289.059 364.908 289.518 364.933C289.666 364.945 289.815 364.957 289.964 364.97C290.262 364.995 290.572 365.019 290.857 365.057C291.043 365.081 291.217 365.106 291.39 365.131C291.651 365.168 291.923 365.205 292.184 365.243C292.37 365.28 292.556 365.317 292.742 365.354C292.99 365.404 293.238 365.453 293.486 365.503C293.684 365.54 293.87 365.602 294.056 365.639C294.292 365.701 294.528 365.751 294.763 365.825C294.962 365.875 295.148 365.937 295.334 365.999C295.557 366.073 295.793 366.135 296.016 366.21C296.202 366.272 296.4 366.346 296.586 366.408C296.81 366.483 297.02 366.569 297.244 366.656C297.43 366.731 297.628 366.805 297.814 366.892C298.025 366.979 298.236 367.066 298.446 367.165C298.633 367.252 298.819 367.338 299.005 367.425C299.203 367.524 299.414 367.624 299.612 367.723C299.798 367.822 299.972 367.909 300.158 368.008C300.356 368.12 300.555 368.231 300.741 368.343C300.914 368.442 301.088 368.554 301.274 368.653C301.472 368.777 301.658 368.888 301.844 369.013C302.018 369.124 302.179 369.236 302.353 369.347C302.539 369.471 302.725 369.608 302.911 369.732C303.072 369.843 303.233 369.967 303.395 370.091C303.581 370.228 303.754 370.377 303.94 370.513C304.089 370.637 304.25 370.761 304.399 370.885C304.585 371.034 304.759 371.195 304.932 371.344C305.081 371.468 305.218 371.592 305.354 371.728C305.54 371.89 305.714 372.063 305.887 372.237C306.011 372.361 306.148 372.485 306.272 372.621C306.458 372.807 306.631 372.993 306.805 373.192C306.892 373.291 306.991 373.378 307.078 373.477C307.103 373.502 307.127 373.527 307.152 373.551C307.289 373.7 307.413 373.849 307.537 373.998C307.673 374.159 307.809 374.32 307.946 374.481C308.07 374.63 308.181 374.779 308.305 374.94C308.442 375.114 308.566 375.275 308.69 375.449C308.801 375.598 308.913 375.759 309.025 375.92C309.149 376.094 309.273 376.267 309.397 376.453C309.508 376.614 309.608 376.776 309.707 376.937C309.818 377.123 309.942 377.309 310.054 377.495C310.153 377.656 310.24 377.817 310.339 377.991C310.451 378.177 310.55 378.375 310.662 378.561C310.711 378.648 310.761 378.747 310.81 378.834H403.993C403.993 378.834 404.067 374.767 401.451 371.059C401.339 370.947 401.228 370.823 401.141 370.724C401.066 370.649 400.992 370.575 400.917 370.488C400.694 370.265 400.471 370.054 400.235 369.843C400.211 369.819 400.173 369.781 400.149 369.757C399.876 369.521 399.603 369.285 399.33 369.062C399.268 369.013 399.219 368.975 399.157 368.926C398.933 368.752 398.71 368.591 398.487 368.43C398.388 368.355 398.276 368.293 398.177 368.219C397.991 368.095 397.805 367.971 397.606 367.847C397.482 367.772 397.358 367.698 397.234 367.624C397.061 367.512 396.875 367.413 396.701 367.314C396.565 367.239 396.428 367.165 396.304 367.103C396.131 367.016 395.957 366.917 395.771 366.83C395.635 366.768 395.486 366.693 395.349 366.631C395.176 366.557 395.002 366.47 394.816 366.396C394.667 366.334 394.518 366.272 394.37 366.222C394.196 366.148 394.01 366.086 393.836 366.024C393.688 365.974 393.526 365.912 393.378 365.863C393.192 365.801 393.018 365.751 392.832 365.701C392.683 365.652 392.522 365.615 392.361 365.565C392.175 365.515 391.989 365.478 391.803 365.429C391.592 365.391 391.406 365.354 391.22 365.305C391.071 365.28 390.91 365.243 390.761 365.218C390.612 365.193 390.463 365.168 390.302 365.143C390.091 365.106 389.88 365.094 389.67 365.069C389.533 365.057 389.397 365.032 389.26 365.019C388.988 364.995 388.715 364.982 388.442 364.97C388.367 364.97 388.281 364.957 388.206 364.957C387.859 364.945 387.499 364.945 387.152 364.957C386.768 364.97 386.383 364.982 385.999 365.019C384.027 365.181 382.043 365.664 380.121 366.495C379.501 366.768 378.905 367.066 378.323 367.388C378.943 364.995 378.806 362.403 377.752 359.96C377.603 359.625 377.442 359.302 377.268 358.98C377.219 358.881 377.157 358.794 377.095 358.695C376.971 358.484 376.834 358.273 376.698 358.062C376.624 357.963 376.562 357.851 376.487 357.752C376.351 357.554 376.202 357.368 376.053 357.194C375.979 357.107 375.904 357.008 375.83 356.921C375.644 356.711 375.445 356.5 375.235 356.301C375.197 356.264 375.16 356.214 375.111 356.177C374.863 355.942 374.615 355.718 374.342 355.508C374.255 355.446 374.181 355.384 374.094 355.322C373.908 355.173 373.709 355.036 373.511 354.912C373.412 354.838 373.3 354.776 373.201 354.714C373.002 354.59 372.816 354.478 372.606 354.379C372.506 354.33 372.407 354.268 372.296 354.218C372.035 354.094 371.775 353.97 371.502 353.858C371.452 353.846 371.415 353.821 371.365 353.796C371.055 353.672 370.733 353.561 370.423 353.474C370.324 353.449 370.225 353.424 370.125 353.399C369.89 353.337 369.667 353.275 369.431 353.238C369.319 353.213 369.195 353.189 369.084 353.176C368.848 353.139 368.625 353.102 368.389 353.077C368.278 353.065 368.178 353.052 368.067 353.04C367.757 353.015 367.434 353.003 367.112 353.003C367.087 353.003 367.062 353.003 367.05 353.003C366.703 353.003 366.368 353.027 366.021 353.065C365.921 353.077 365.81 353.089 365.711 353.102C365.462 353.139 365.227 353.164 364.979 353.213C364.855 353.238 364.743 353.263 364.619 353.288C364.384 353.337 364.136 353.399 363.9 353.474C363.788 353.511 363.689 353.536 363.578 353.573C363.243 353.685 362.895 353.809 362.561 353.945C362.523 353.957 362.499 353.97 362.461 353.995C362.213 354.106 361.978 354.218 361.755 354.342C361.68 354.379 361.593 354.429 361.519 354.466C361.333 354.565 361.159 354.664 360.986 354.776C360.911 354.826 360.837 354.875 360.762 354.925C360.576 355.049 360.403 355.173 360.217 355.309C360.167 355.346 360.118 355.384 360.056 355.421C359.832 355.594 359.622 355.768 359.423 355.954C359.361 356.004 359.312 356.053 359.262 356.115C359.113 356.264 358.952 356.413 358.815 356.562C358.753 356.624 358.691 356.698 358.629 356.76C358.493 356.909 358.357 357.07 358.233 357.219C358.183 357.281 358.133 357.343 358.084 357.405C357.91 357.628 357.749 357.851 357.588 358.087C357.575 358.112 357.563 358.137 357.538 358.161C357.402 358.372 357.265 358.583 357.141 358.806C357.104 358.881 357.067 358.943 357.03 359.017C356.93 359.203 356.831 359.389 356.744 359.575C356.707 359.65 356.67 359.712 356.645 359.786C356.534 360.034 356.422 360.282 356.335 360.542V360.555C356.236 360.815 356.149 361.088 356.075 361.361C356.05 361.423 356.038 361.497 356.025 361.559C355.963 361.77 355.914 361.981 355.876 362.192C355.852 362.328 355.814 362.465 355.79 362.614C350.519 358.422 343.178 357.194 336.568 360.046C335.266 360.604 334.075 361.299 332.971 362.093L330.727 361.783C330.429 360.753 330.07 359.736 329.635 358.72C329.474 358.347 329.301 357.975 329.127 357.616C329.077 357.504 329.015 357.393 328.953 357.281C328.829 357.033 328.693 356.785 328.569 356.537C328.495 356.413 328.433 356.289 328.358 356.165C328.222 355.929 328.085 355.706 327.949 355.47C327.875 355.346 327.8 355.235 327.738 355.123C327.577 354.875 327.428 354.64 327.267 354.404C327.205 354.317 327.143 354.23 327.081 354.131C326.858 353.809 326.622 353.486 326.386 353.176C326.362 353.151 326.349 353.127 326.324 353.102C326.101 352.817 325.878 352.544 325.642 352.259C325.568 352.159 325.481 352.072 325.407 351.986C325.258 351.812 325.097 351.638 324.948 351.465C324.563 351.043 324.167 350.634 323.745 350.237C323.671 350.163 323.584 350.088 323.509 350.026C323.137 349.679 322.753 349.344 322.356 349.009C322.269 348.947 322.195 348.873 322.108 348.811C321.662 348.451 321.215 348.117 320.756 347.794C320.645 347.72 320.545 347.645 320.434 347.571C319.975 347.261 319.516 346.963 319.045 346.678C319.02 346.666 318.995 346.641 318.958 346.628C318.462 346.343 317.954 346.07 317.445 345.81C317.333 345.748 317.209 345.698 317.098 345.636C316.589 345.388 316.069 345.153 315.548 344.942C315.473 344.917 315.399 344.88 315.324 344.855C314.841 344.669 314.357 344.495 313.861 344.322C313.762 344.285 313.65 344.247 313.551 344.223C313.005 344.049 312.46 343.9 311.914 343.764C311.803 343.739 311.691 343.714 311.579 343.689C311.058 343.565 310.538 343.466 310.004 343.379C309.942 343.367 309.893 343.354 309.831 343.342C309.26 343.255 308.69 343.193 308.107 343.131C307.983 343.119 307.859 343.106 307.735 343.106C307.152 343.069 306.569 343.032 305.986 343.032C305.949 343.032 305.9 343.032 305.862 343.032C305.304 343.032 304.746 343.057 304.188 343.082C304.064 343.094 303.953 343.094 303.829 343.106C303.246 343.156 302.675 343.218 302.092 343.292C301.993 343.305 301.882 343.33 301.782 343.342C301.249 343.429 300.716 343.528 300.183 343.64C300.096 343.664 300.009 343.677 299.922 343.689C299.339 343.826 298.769 343.987 298.198 344.161C298.074 344.198 297.95 344.235 297.826 344.285C297.244 344.471 296.661 344.681 296.078 344.917C290.857 335.641 286.82 271.516 284.253 254.626L270.463 265.764C270.847 268.74 272.801 330.904 282.796 356.909Z" fill="#E3E3E3"/>
<path d="M310.663 378.549C310.563 378.351 310.452 378.165 310.34 377.979C310.241 377.817 310.154 377.656 310.055 377.483C309.943 377.297 309.832 377.111 309.708 376.925C309.608 376.763 309.497 376.602 309.398 376.441C309.274 376.267 309.15 376.081 309.026 375.908C308.914 375.746 308.802 375.598 308.691 375.436C308.567 375.263 308.43 375.102 308.306 374.928C308.182 374.779 308.071 374.618 307.947 374.469C307.81 374.308 307.674 374.147 307.537 373.986C307.413 373.837 307.277 373.688 307.153 373.539C307.041 373.415 306.93 373.291 306.806 373.167C306.632 372.981 306.459 372.783 306.272 372.597C306.148 372.473 306.012 372.349 305.888 372.212C305.714 372.039 305.541 371.877 305.355 371.704C305.218 371.58 305.07 371.456 304.933 371.319C304.76 371.158 304.574 371.009 304.4 370.86C304.251 370.736 304.09 370.612 303.941 370.488C303.755 370.34 303.581 370.203 303.395 370.067C303.234 369.943 303.073 369.831 302.912 369.707C302.726 369.571 302.54 369.447 302.354 369.323C302.18 369.211 302.019 369.099 301.845 368.988C301.659 368.864 301.461 368.74 301.275 368.628C301.101 368.517 300.928 368.417 300.742 368.318C300.543 368.207 300.357 368.095 300.159 367.983C299.973 367.884 299.799 367.785 299.613 367.698C299.415 367.599 299.204 367.5 299.005 367.4C298.819 367.314 298.633 367.227 298.447 367.14C298.237 367.041 298.026 366.954 297.815 366.867C297.629 366.793 297.443 366.706 297.244 366.632C297.034 366.545 296.81 366.47 296.587 366.384C296.401 366.309 296.203 366.247 296.017 366.185C295.794 366.111 295.57 366.036 295.335 365.974C295.149 365.912 294.95 365.863 294.764 365.801C294.529 365.739 294.293 365.677 294.057 365.615C293.871 365.565 293.673 365.516 293.487 365.478C293.239 365.429 292.991 365.379 292.743 365.329C292.557 365.292 292.371 365.255 292.185 365.218C291.924 365.168 291.651 365.143 291.391 365.106C291.217 365.081 291.031 365.057 290.858 365.032C290.56 364.995 290.263 364.97 289.965 364.945C289.816 364.933 289.667 364.92 289.518 364.908C289.06 364.883 288.613 364.858 288.142 364.858C287.782 364.858 287.423 364.858 287.063 364.871C286.741 364.883 286.418 364.895 286.096 364.92H286.071C284.905 362.217 283.814 359.538 282.797 356.884C272.802 330.879 272.616 262.418 272.244 259.404L285.116 258.983L260.066 259.801C260.066 259.801 253.803 325.956 246.623 345.785C245.197 349.741 243.622 353.685 241.886 357.442C234.792 351.18 223.966 351.093 216.773 357.591C215.074 359.129 213.722 360.902 212.706 362.824C206.021 359.65 197.812 360.605 191.971 365.863C191.686 366.123 191.413 366.384 191.152 366.656C190.656 365.28 189.9 363.978 188.858 362.837C184.592 358.112 177.288 357.74 172.563 362.006C170.083 364.238 168.818 367.314 168.768 370.402C162.196 367.574 154.308 368.616 148.653 373.725C147.004 375.213 145.677 376.925 144.685 378.785H310.799C310.749 378.735 310.712 378.636 310.663 378.549Z" fill="white"/>
<path d="M224.705 364.4C224.469 364.325 224.234 364.226 223.986 364.152C223.738 364.09 223.514 364.015 223.266 363.99L222.907 363.928L222.547 363.904C222.311 363.879 222.063 363.904 221.828 363.904C221.592 363.916 221.357 363.953 221.121 363.978C220.885 364.04 220.662 364.065 220.439 364.139C220.216 364.214 219.992 364.276 219.782 364.375C219.558 364.449 219.36 364.561 219.162 364.672C218.963 364.772 218.777 364.92 218.579 365.032C218.405 365.181 218.219 365.305 218.058 365.466C217.897 365.627 217.723 365.764 217.587 365.95C217.512 366.037 217.438 366.111 217.363 366.198L217.177 366.471C217.041 366.644 216.954 366.855 216.83 367.041L216.793 367.115C216.805 367.103 216.781 367.14 216.805 367.091V367.103L216.793 367.128L216.768 367.165L216.694 367.339C216.644 367.45 216.57 367.574 216.557 367.661C216.495 367.86 216.421 368.046 216.371 368.256C216.309 368.467 216.284 368.678 216.235 368.889L215.974 370.154L214.858 369.372C214.635 369.211 214.412 369.038 214.176 368.889L213.817 368.678L213.643 368.566L213.593 368.542C213.556 368.517 213.643 368.566 213.631 368.566H213.618L213.593 368.554L213.494 368.504L213.073 368.306L212.862 368.207L212.676 368.145C212.428 368.058 212.205 367.959 211.919 367.897L211.522 367.785C211.386 367.748 211.25 367.736 211.113 367.711C210.977 367.686 210.84 367.661 210.704 367.649L210.295 367.612C210.022 367.574 209.749 367.599 209.476 367.599C209.203 367.599 208.931 367.649 208.658 367.674C208.385 367.723 208.112 367.773 207.852 367.835C207.591 367.922 207.318 367.971 207.07 368.083C206.81 368.182 206.55 368.269 206.314 368.405L205.942 368.591C205.818 368.653 205.706 368.74 205.595 368.802C205.359 368.938 205.136 369.1 204.913 369.273C204.677 369.422 204.491 369.633 204.28 369.807C204.069 369.993 203.896 370.203 203.697 370.402C203.524 370.613 203.362 370.848 203.176 371.059L202.705 371.654L202.098 371.332C201.924 371.233 201.75 371.121 201.564 371.047C201.391 370.947 201.192 370.885 201.006 370.811C200.808 370.749 200.622 370.687 200.423 370.637C200.225 370.588 200.027 370.563 199.816 370.526C199.605 370.513 199.406 370.476 199.196 370.489C198.985 370.476 198.786 370.489 198.576 370.501C198.365 370.526 198.154 370.538 197.956 370.588C197.745 370.625 197.546 370.687 197.335 370.737C197.137 370.811 196.926 370.873 196.74 370.96C196.542 371.034 196.356 371.133 196.157 371.233C196.058 371.282 195.971 371.344 195.872 371.394L195.699 371.443L195.649 371.419C195.661 371.406 195.624 371.443 195.661 371.406L195.686 371.456L195.674 371.505L195.612 371.567L195.066 372.002C194.892 372.15 194.768 372.312 194.607 372.46C194.533 372.535 194.446 372.609 194.384 372.696L194.186 372.969C194.062 373.155 193.888 373.328 193.801 373.527L193.466 374.135C193.528 373.911 193.59 373.688 193.652 373.452C193.702 373.217 193.826 373.018 193.913 372.795L194.062 372.473C194.111 372.361 194.186 372.262 194.26 372.163C194.396 371.964 194.52 371.741 194.682 371.555L195.153 371.047L195.215 370.985L195.24 370.947L195.252 370.935L195.215 370.885L195.202 370.823L195.215 370.811L195.388 370.737C195.488 370.662 195.587 370.588 195.686 370.526C195.885 370.377 196.095 370.241 196.306 370.117C196.517 369.98 196.753 369.881 196.976 369.769C197.211 369.67 197.435 369.571 197.683 369.496C197.918 369.41 198.166 369.36 198.414 369.298C198.662 369.261 198.91 369.199 199.171 369.186C199.419 369.162 199.679 369.162 199.94 369.162C200.2 369.174 200.448 369.186 200.709 369.236C200.969 369.261 201.217 369.323 201.465 369.385C201.713 369.459 201.961 369.521 202.209 369.62C202.457 369.707 202.693 369.819 202.928 369.931L201.85 370.203C202.036 369.918 202.222 369.633 202.42 369.36C202.643 369.1 202.842 368.827 203.077 368.579C203.325 368.343 203.548 368.083 203.821 367.884C204.082 367.661 204.342 367.45 204.64 367.264C204.789 367.177 204.925 367.078 205.074 366.991L205.52 366.756C205.818 366.582 206.14 366.471 206.45 366.334C206.76 366.198 207.095 366.123 207.43 366.024C207.765 365.95 208.1 365.875 208.435 365.813C208.769 365.776 209.117 365.727 209.464 365.727C209.811 365.727 210.146 365.702 210.493 365.751L211.002 365.801C211.175 365.826 211.336 365.863 211.51 365.888C211.684 365.925 211.845 365.95 212.018 365.987L212.515 366.136C212.837 366.223 213.172 366.371 213.507 366.495L213.755 366.595L213.953 366.706L214.362 366.929L214.462 366.979L214.548 367.029L214.598 367.066L214.809 367.202L215.23 367.487C215.503 367.686 215.751 367.922 216.024 368.132L214.648 368.616C214.722 368.343 214.772 368.058 214.871 367.798C214.958 367.537 215.069 367.264 215.206 366.991C215.268 366.843 215.33 366.756 215.392 366.644L215.491 366.483L215.553 366.371L215.615 366.285C215.776 366.061 215.925 365.813 216.111 365.615L216.384 365.305C216.483 365.206 216.582 365.106 216.681 365.02C216.88 364.821 217.103 364.66 217.314 364.486C217.537 364.313 217.785 364.189 218.008 364.04C218.256 363.928 218.492 363.792 218.752 363.693C219.013 363.594 219.261 363.494 219.521 363.445C219.658 363.407 219.782 363.37 219.918 363.345L220.315 363.283C220.575 363.234 220.848 363.246 221.109 363.234C221.369 363.246 221.642 363.246 221.902 363.283C222.163 363.321 222.423 363.358 222.671 363.432L223.043 363.532L223.403 363.668C223.651 363.742 223.874 363.891 224.097 364.003C224.296 364.102 224.494 364.263 224.705 364.4Z" fill="#E3E3E3"/>
<path d="M285.653 375.809L285.367 375.226C285.256 375.04 285.144 374.866 285.032 374.68C284.908 374.507 284.772 374.333 284.648 374.172C284.512 374.011 284.363 373.862 284.226 373.701C284.078 373.552 283.916 373.416 283.768 373.279C283.606 373.143 283.433 373.031 283.271 372.907L282.751 372.585L282.205 372.312L281.635 372.101L281.052 371.94C280.853 371.903 280.655 371.865 280.456 371.841C280.258 371.828 280.06 371.803 279.861 371.791C279.663 371.791 279.464 371.791 279.266 371.803C279.067 371.828 278.869 371.841 278.683 371.865L278.1 371.977L277.542 372.151L276.996 372.312L276.736 371.754L276.463 371.171C276.364 370.985 276.252 370.799 276.153 370.613C275.918 370.253 275.682 369.906 275.409 369.584L275.31 369.46V369.435L275.322 369.41C275.335 369.422 275.285 369.398 275.322 369.447L275.285 369.422L275.223 369.36L274.987 369.112C274.826 368.951 274.665 368.765 274.516 368.653L274.057 368.257L273.537 367.897C273.375 367.773 273.177 367.674 273.003 367.575C272.817 367.463 272.644 367.364 272.445 367.289C272.247 367.203 272.061 367.116 271.875 367.041L271.28 366.843C271.081 366.781 270.87 366.744 270.672 366.694C270.473 366.632 270.263 366.607 270.052 366.582C269.643 366.508 269.221 366.508 268.799 366.483C268.378 366.508 267.956 366.508 267.547 366.582L267.237 366.62L266.927 366.694C266.728 366.744 266.517 366.781 266.319 366.855L265.724 367.054C265.525 367.128 265.339 367.227 265.153 367.302C264.955 367.376 264.781 367.488 264.595 367.587C264.422 367.699 264.223 367.785 264.062 367.909L263.541 368.269L263.504 368.294H263.492C263.467 368.306 263.516 368.269 263.504 368.281L263.492 368.294L263.43 368.356L263.293 368.467L263.033 368.691C262.896 368.839 262.748 368.963 262.599 369.112C262.462 369.274 262.301 369.41 262.177 369.584C262.041 369.745 261.904 369.906 261.793 370.092C261.669 370.266 261.557 370.439 261.445 370.625C261.222 370.985 261.024 371.369 260.85 371.766L260.354 372.857L259.697 371.94L259.647 371.878L259.672 371.828L259.709 371.791C259.759 371.853 259.722 371.803 259.734 371.816L259.722 371.803H259.66L259.536 371.692L259.312 371.444C259.238 371.357 259.164 371.295 259.102 371.233L258.891 371.034C258.767 370.898 258.581 370.786 258.432 370.65C258.283 370.514 258.097 370.427 257.936 370.303C257.775 370.191 257.589 370.104 257.403 370.005C257.229 369.906 257.031 369.844 256.845 369.757C256.659 369.683 256.46 369.633 256.262 369.571C256.063 369.522 255.865 369.484 255.654 369.435C255.456 369.398 255.245 369.385 255.034 369.36C254.823 369.348 254.612 369.348 254.402 369.336L253.769 369.385L253.137 369.484L252.517 369.646L251.909 369.869L251.314 370.154L250.743 370.489L251.239 370.042L251.785 369.646C251.971 369.534 252.182 369.422 252.368 369.311C252.566 369.212 252.777 369.125 252.988 369.038C253.199 368.964 253.422 368.889 253.645 368.827L254.327 368.691C254.563 368.666 254.786 368.641 255.022 368.616C255.257 368.616 255.493 368.604 255.716 368.616C255.952 368.641 256.187 368.653 256.411 368.691C256.646 368.74 256.882 368.777 257.105 368.839C257.328 368.914 257.564 368.963 257.787 369.05C258.01 369.15 258.233 369.224 258.444 369.336C258.655 369.447 258.878 369.546 259.077 369.683C259.275 369.819 259.474 369.943 259.672 370.104L259.957 370.352C260.056 370.439 260.156 370.514 260.218 370.6L260.453 370.836L260.565 370.948L260.59 370.972L260.602 370.985L260.639 371.022L260.652 371.034L260.701 371.096L259.548 371.27C259.709 370.799 259.895 370.34 260.131 369.906C260.242 369.683 260.366 369.472 260.503 369.261C260.627 369.05 260.776 368.839 260.925 368.641C261.061 368.43 261.235 368.257 261.396 368.058C261.557 367.86 261.755 367.686 261.929 367.488L262.165 367.227L262.276 367.091L262.338 367.029L262.351 367.017L262.413 367.004L262.462 366.992L263.07 366.533C263.268 366.372 263.492 366.26 263.702 366.124C263.913 365.987 264.136 365.863 264.36 365.764C264.583 365.652 264.819 365.541 265.042 365.442L265.749 365.181C265.984 365.094 266.232 365.045 266.48 364.983L266.852 364.896L267.224 364.846C267.72 364.759 268.229 364.735 268.737 364.722C269.246 364.747 269.742 364.759 270.25 364.846C270.498 364.884 270.746 364.921 270.994 364.995C271.242 365.057 271.49 365.107 271.726 365.194L272.433 365.454C272.668 365.553 272.892 365.665 273.115 365.776C273.351 365.876 273.561 366.012 273.772 366.136C273.983 366.272 274.206 366.384 274.405 366.545L275 367.004L275.57 367.537C275.781 367.723 275.905 367.897 276.054 368.071L276.277 368.331L276.339 368.393L276.364 368.43L276.389 368.467L276.401 368.48L276.414 368.505L276.525 368.653C276.823 369.05 277.083 369.484 277.319 369.918C277.431 370.142 277.542 370.365 277.641 370.588L277.902 371.283L277.083 370.886L277.778 370.724C278.013 370.687 278.249 370.662 278.485 370.638C278.72 370.625 278.956 370.625 279.191 370.625C279.427 370.638 279.663 370.662 279.898 370.687C280.134 370.724 280.357 370.774 280.593 370.811C280.816 370.873 281.039 370.935 281.262 371.01C281.486 371.096 281.697 371.183 281.907 371.27C282.118 371.369 282.317 371.481 282.515 371.593L283.085 371.977C283.259 372.126 283.445 372.262 283.619 372.411C283.78 372.572 283.941 372.733 284.102 372.895C284.251 373.068 284.388 373.242 284.524 373.428C284.648 373.614 284.772 373.8 284.896 373.986C284.995 374.184 285.107 374.383 285.206 374.581C285.28 374.792 285.367 374.99 285.442 375.201L285.653 375.809Z" fill="#E3E3E3"/>
<path d="M155.828 377.508L144.691 378.834C144.691 378.834 107.004 356.128 68.2258 392.798L68.2134 432.321H483.975C483.975 432.321 473.98 404.517 440.385 404.517C406.791 404.517 404.161 415.058 404.161 415.058C404.161 415.058 391.649 380.806 358.054 395.96C358.054 395.96 344.884 366.979 310.669 378.562C310.669 378.549 169.01 369.596 155.828 377.508Z" fill="white"/>
<path d="M153.57 393.642C153.235 393.555 152.913 393.418 152.59 393.344C152.255 393.282 151.945 393.195 151.611 393.158L151.115 393.096L150.619 393.084C150.296 393.059 149.961 393.108 149.639 393.121C149.316 393.146 148.994 393.208 148.684 393.257C148.374 393.344 148.064 393.394 147.766 393.518C147.469 393.629 147.171 393.728 146.886 393.865C146.588 393.976 146.328 394.15 146.055 394.299C145.782 394.448 145.546 394.646 145.286 394.82C145.063 395.031 144.802 395.204 144.604 395.44C144.393 395.663 144.17 395.874 143.996 396.109C143.909 396.233 143.798 396.345 143.711 396.469L143.463 396.854C143.289 397.102 143.178 397.387 143.029 397.647L142.979 397.746V397.759C142.992 397.746 142.955 397.796 142.992 397.722V397.734L142.979 397.759L142.955 397.821L142.855 398.056C142.793 398.205 142.707 398.391 142.682 398.515C142.607 398.776 142.521 399.036 142.459 399.334C142.384 399.619 142.359 399.917 142.31 400.202L142.012 401.938L140.462 400.933C140.14 400.723 139.829 400.499 139.507 400.313L139.011 400.041L138.763 399.904L138.701 399.867H138.689C138.639 399.842 138.751 399.892 138.738 399.892L138.726 399.879L138.689 399.867L138.54 399.805L137.957 399.557L137.672 399.433L137.411 399.359C137.076 399.259 136.754 399.123 136.37 399.061L135.824 398.937C135.638 398.9 135.452 398.887 135.266 398.863C135.08 398.838 134.894 398.8 134.708 398.8L134.15 398.776C133.778 398.738 133.406 398.788 133.034 398.8C132.662 398.813 132.29 398.9 131.918 398.949C131.558 399.024 131.186 399.111 130.826 399.21C130.479 399.346 130.107 399.433 129.772 399.594C129.425 399.743 129.078 399.879 128.755 400.065L128.259 400.338C128.098 400.437 127.949 400.549 127.788 400.648C127.466 400.847 127.18 401.082 126.883 401.318C126.573 401.541 126.325 401.826 126.052 402.087C125.779 402.347 125.556 402.657 125.295 402.93C125.06 403.228 124.861 403.55 124.626 403.86L124.018 404.703L123.175 404.294C122.927 404.17 122.691 404.034 122.443 403.935C122.195 403.811 121.935 403.736 121.674 403.637C121.401 403.563 121.141 403.476 120.868 403.439C120.595 403.377 120.322 403.352 120.037 403.315C119.752 403.302 119.479 403.277 119.194 403.29C118.909 403.29 118.636 403.315 118.351 403.339C118.065 403.389 117.78 403.414 117.507 403.488C117.222 403.538 116.962 403.637 116.676 403.724C116.416 403.835 116.131 403.922 115.883 404.059C115.61 404.17 115.362 404.319 115.102 404.468C114.978 404.542 114.854 404.629 114.729 404.716L114.494 404.79L114.419 404.753C114.432 404.741 114.395 404.778 114.444 404.728L114.481 404.79L114.457 404.852L114.382 404.939L113.675 405.559C113.44 405.758 113.279 405.993 113.068 406.204C112.969 406.316 112.857 406.415 112.77 406.539L112.51 406.923C112.348 407.184 112.125 407.419 112.014 407.705L111.58 408.548C111.642 408.238 111.716 407.928 111.79 407.618C111.852 407.295 112.001 407.01 112.113 406.712L112.299 406.266C112.373 406.117 112.46 405.981 112.547 405.832C112.72 405.559 112.882 405.237 113.08 404.989L113.688 404.269L113.762 404.183L113.799 404.133L113.812 404.121L113.762 404.059L113.737 403.972L113.762 403.947L113.998 403.835C114.122 403.724 114.271 403.625 114.395 403.525C114.655 403.315 114.928 403.116 115.213 402.93C115.486 402.732 115.796 402.583 116.094 402.422C116.404 402.285 116.714 402.124 117.036 402.012C117.359 401.876 117.693 401.802 118.016 401.702C118.351 401.628 118.685 401.541 119.033 401.516C119.38 401.467 119.727 401.454 120.074 401.442C120.422 401.454 120.769 401.454 121.116 401.492C121.463 401.516 121.811 401.591 122.158 401.653C122.493 401.74 122.84 401.814 123.175 401.938C123.51 402.037 123.832 402.186 124.167 402.322L122.703 402.744C122.939 402.36 123.175 401.95 123.435 401.566C123.72 401.206 123.968 400.809 124.291 400.475C124.613 400.14 124.911 399.78 125.258 399.483C125.605 399.173 125.953 398.862 126.337 398.602C126.523 398.466 126.709 398.329 126.907 398.205L127.515 397.858C127.912 397.61 128.334 397.424 128.755 397.226C129.177 397.027 129.623 396.903 130.07 396.742C130.516 396.618 130.975 396.506 131.421 396.407C131.88 396.345 132.339 396.246 132.81 396.233C133.282 396.221 133.741 396.171 134.212 396.209L134.906 396.246C135.142 396.258 135.365 396.308 135.601 396.333C135.836 396.37 136.06 396.395 136.295 396.444L136.977 396.618C137.424 396.717 137.883 396.891 138.341 397.064L138.689 397.188L138.974 397.325L139.544 397.598L139.681 397.672L139.805 397.734L139.879 397.784L140.177 397.97L140.772 398.329C141.156 398.59 141.516 398.887 141.876 399.16L140.028 399.904C140.115 399.532 140.164 399.148 140.288 398.776C140.388 398.416 140.536 398.032 140.698 397.66C140.772 397.461 140.859 397.337 140.933 397.176L141.057 396.953L141.144 396.804L141.218 396.68C141.429 396.357 141.615 396.035 141.863 395.737L142.223 395.291C142.347 395.142 142.483 395.018 142.607 394.882C142.868 394.596 143.153 394.361 143.438 394.125C143.723 393.877 144.058 393.704 144.356 393.493C144.691 393.319 145.001 393.133 145.348 392.984C145.695 392.848 146.03 392.699 146.39 392.6C146.563 392.55 146.737 392.488 146.923 392.451L147.469 392.352C147.828 392.277 148.2 392.277 148.548 392.24C148.907 392.24 149.267 392.228 149.626 392.265C149.986 392.302 150.333 392.339 150.681 392.426L151.201 392.55L151.697 392.724C152.032 392.823 152.355 392.997 152.665 393.133C152.987 393.27 153.272 393.456 153.57 393.642Z" fill="#E3E3E3"/>
<path d="M262.757 418.32L262.261 417.34C262.075 417.03 261.877 416.72 261.691 416.422C261.48 416.125 261.257 415.852 261.046 415.567C260.81 415.294 260.562 415.034 260.327 414.773C260.079 414.525 259.806 414.302 259.545 414.066C259.272 413.843 258.987 413.645 258.714 413.434L257.834 412.888L256.904 412.429L255.949 412.07L254.969 411.797C254.634 411.735 254.3 411.673 253.965 411.623C253.63 411.598 253.295 411.561 252.96 411.549C252.625 411.561 252.291 411.549 251.956 411.574C251.621 411.611 251.286 411.636 250.964 411.673L249.996 411.871L249.054 412.156L248.124 412.442L247.677 411.487L247.219 410.507C247.045 410.185 246.859 409.887 246.685 409.565C246.301 408.957 245.892 408.374 245.433 407.828L245.272 407.618L245.284 407.568L245.296 407.531C245.309 407.556 245.222 407.506 245.309 407.593L245.247 407.556L245.135 407.456L244.726 407.035C244.453 406.762 244.18 406.452 243.92 406.254L243.151 405.596L242.283 404.989C241.998 404.765 241.675 404.617 241.378 404.443C241.068 404.269 240.77 404.083 240.435 403.959C240.113 403.823 239.79 403.662 239.468 403.538L238.463 403.203C238.128 403.091 237.781 403.029 237.434 402.942C237.099 402.843 236.74 402.794 236.392 402.744C235.698 402.608 234.991 402.608 234.284 402.57C233.577 402.608 232.87 402.608 232.176 402.732L231.655 402.806L231.147 402.93C230.812 403.017 230.452 403.066 230.13 403.19L229.125 403.525C228.79 403.649 228.48 403.811 228.158 403.947C227.823 404.071 227.525 404.257 227.215 404.443C226.918 404.629 226.583 404.765 226.31 404.989L225.442 405.609L225.392 405.646L225.38 405.658H225.368C225.33 405.683 225.405 405.621 225.392 405.633L225.368 405.658L225.256 405.757L225.033 405.943L224.586 406.316C224.351 406.564 224.103 406.774 223.855 407.035C223.619 407.295 223.359 407.543 223.148 407.828C222.925 408.101 222.689 408.374 222.491 408.672C222.28 408.957 222.081 409.267 221.895 409.565C221.511 410.172 221.201 410.817 220.903 411.474L220.072 413.322L218.969 411.784L218.894 411.673L218.944 411.586L219.006 411.512C219.093 411.611 219.031 411.536 219.043 411.561L219.031 411.549L218.919 411.561L218.708 411.375L218.336 410.966C218.212 410.805 218.088 410.718 217.977 410.606L217.629 410.272C217.418 410.036 217.108 409.85 216.86 409.639C216.6 409.416 216.302 409.255 216.03 409.056C215.757 408.858 215.434 408.721 215.137 408.56C214.839 408.399 214.504 408.287 214.194 408.151C213.872 408.027 213.537 407.94 213.214 407.828C212.88 407.742 212.532 407.692 212.198 407.605C211.85 407.543 211.503 407.518 211.156 407.469C210.809 407.456 210.449 407.444 210.102 407.432L209.035 407.506L207.981 407.68L206.939 407.953L205.923 408.337L204.93 408.808L203.976 409.379L204.806 408.622L205.724 407.953C206.047 407.754 206.381 407.58 206.716 407.382C207.063 407.221 207.411 407.072 207.77 406.911C208.13 406.787 208.502 406.663 208.874 406.551L210.015 406.316C210.399 406.278 210.796 406.229 211.181 406.192C211.565 406.192 211.962 406.167 212.359 406.192C212.756 406.229 213.152 406.254 213.537 406.316C213.921 406.402 214.318 406.452 214.703 406.564C215.075 406.688 215.471 406.774 215.844 406.923C216.216 407.084 216.6 407.208 216.947 407.394C217.294 407.593 217.679 407.754 218.001 407.977C218.336 408.213 218.683 408.411 218.993 408.684L219.477 409.093C219.638 409.23 219.8 409.366 219.924 409.503L220.308 409.899L220.506 410.098L220.556 410.148L220.568 410.16L220.618 410.222L220.643 410.247L220.742 410.358L218.807 410.656C219.093 409.875 219.403 409.093 219.8 408.349C219.986 407.977 220.196 407.605 220.432 407.258C220.643 406.898 220.891 406.551 221.151 406.216C221.387 405.869 221.672 405.559 221.945 405.224C222.218 404.902 222.54 404.592 222.85 404.269L223.247 403.835L223.433 403.6L223.545 403.5L223.569 403.476L223.669 403.463L223.743 403.438L224.76 402.67C225.082 402.397 225.467 402.211 225.826 401.988C226.186 401.764 226.546 401.541 226.943 401.38C227.327 401.206 227.711 401.008 228.096 400.847L229.299 400.413C229.696 400.264 230.117 400.189 230.527 400.078L231.147 399.929L231.779 399.83C232.622 399.681 233.466 399.656 234.321 399.619C235.177 399.656 236.02 399.681 236.864 399.842C237.285 399.904 237.707 399.966 238.116 400.09C238.525 400.202 238.947 400.276 239.344 400.425L240.547 400.859C240.944 401.02 241.316 401.219 241.7 401.392C242.084 401.566 242.456 401.789 242.816 402.012C243.176 402.236 243.548 402.434 243.883 402.707L244.887 403.476L245.854 404.369C246.202 404.679 246.412 404.964 246.685 405.261L247.07 405.708L247.169 405.819L247.219 405.869L247.268 405.931L247.281 405.943L247.293 405.956L247.318 405.993L247.504 406.254C248.012 406.923 248.446 407.642 248.843 408.387C249.017 408.771 249.215 409.143 249.376 409.527L249.823 410.693L248.446 410.023L249.624 409.763C250.021 409.701 250.418 409.664 250.815 409.614C251.212 409.589 251.609 409.589 252.005 409.589C252.402 409.602 252.799 409.651 253.196 409.689C253.593 409.751 253.977 409.837 254.362 409.899C254.746 409.999 255.118 410.123 255.49 410.222C255.862 410.358 256.222 410.507 256.581 410.656C256.929 410.83 257.276 411.016 257.611 411.202L258.578 411.846C258.876 412.094 259.186 412.33 259.471 412.578C259.744 412.851 260.017 413.111 260.277 413.384C260.525 413.682 260.761 413.967 260.996 414.277C261.207 414.6 261.418 414.91 261.616 415.232C261.79 415.567 261.976 415.889 262.137 416.236C262.274 416.584 262.41 416.931 262.534 417.278L262.757 418.32Z" fill="#E3E3E3"/>
<path d="M372.339 418.543L371.843 417.564C371.657 417.254 371.459 416.943 371.273 416.646C371.062 416.348 370.839 416.075 370.628 415.79C370.392 415.517 370.144 415.257 369.908 414.996C369.66 414.748 369.388 414.525 369.127 414.29C368.854 414.066 368.569 413.868 368.296 413.657L367.416 413.111L366.486 412.653L365.531 412.293L364.551 412.02C364.216 411.958 363.881 411.896 363.547 411.847C363.212 411.822 362.877 411.785 362.542 411.772C362.207 411.785 361.872 411.772 361.538 411.797C361.203 411.847 360.868 411.859 360.546 411.896L359.578 412.095L358.636 412.38L357.706 412.665L357.259 411.71L356.8 410.73C356.627 410.408 356.441 410.11 356.267 409.788C355.883 409.18 355.473 408.597 355.015 408.052L354.853 407.841L354.866 407.791L354.878 407.754C354.891 407.779 354.804 407.729 354.891 407.816L354.829 407.779L354.717 407.68L354.308 407.258C354.035 406.985 353.762 406.675 353.502 406.477L352.733 405.82L351.865 405.212C351.579 404.989 351.257 404.84 350.959 404.666C350.649 404.493 350.352 404.307 350.017 404.183C349.694 404.046 349.372 403.885 349.05 403.761L348.045 403.426C347.71 403.315 347.363 403.253 347.016 403.166C346.681 403.067 346.321 403.017 345.974 402.967C345.28 402.831 344.573 402.831 343.866 402.794C343.159 402.831 342.452 402.831 341.758 402.955L341.237 403.029L340.728 403.153C340.394 403.24 340.034 403.29 339.712 403.414L338.707 403.749C338.372 403.873 338.062 404.034 337.74 404.17C337.405 404.294 337.107 404.48 336.797 404.666C336.5 404.852 336.165 404.989 335.892 405.212L335.024 405.82L334.974 405.857L334.962 405.869H334.949C334.912 405.894 334.987 405.832 334.974 405.844L334.949 405.869L334.838 405.968L334.615 406.154L334.168 406.526C333.933 406.775 333.685 406.985 333.437 407.246C333.201 407.506 332.94 407.754 332.73 408.039C332.506 408.312 332.271 408.585 332.085 408.883C331.874 409.168 331.676 409.478 331.49 409.776C331.105 410.383 330.795 411.028 330.497 411.685L329.667 413.533L328.563 411.995L328.488 411.884L328.538 411.797L328.6 411.723C328.687 411.822 328.625 411.747 328.637 411.772L328.625 411.76L328.513 411.772L328.302 411.586L327.93 411.177C327.806 411.016 327.682 410.929 327.571 410.817L327.224 410.482C327 410.247 326.703 410.061 326.455 409.85C326.194 409.627 325.897 409.466 325.624 409.267C325.351 409.069 325.029 408.932 324.731 408.771C324.433 408.61 324.098 408.498 323.788 408.362C323.466 408.238 323.131 408.151 322.809 408.039C322.474 407.953 322.127 407.903 321.792 407.816C321.445 407.754 321.097 407.729 320.75 407.68C320.403 407.655 320.043 407.655 319.696 407.643L318.63 407.717L317.575 407.891L316.534 408.163L315.517 408.548L314.525 409.019L313.57 409.59L314.401 408.833L315.318 408.163C315.641 407.965 315.976 407.791 316.31 407.593C316.658 407.432 317.005 407.283 317.365 407.122C317.724 406.998 318.096 406.874 318.468 406.762L319.609 406.526C319.994 406.489 320.39 406.44 320.775 406.402C321.159 406.402 321.556 406.378 321.953 406.402C322.35 406.44 322.747 406.464 323.131 406.526C323.516 406.613 323.912 406.663 324.297 406.775C324.669 406.899 325.066 406.985 325.438 407.134C325.81 407.295 326.194 407.419 326.541 407.605C326.889 407.804 327.273 407.965 327.596 408.188C327.93 408.424 328.278 408.622 328.588 408.895L329.071 409.304C329.233 409.441 329.394 409.577 329.518 409.714L329.902 410.11L330.101 410.309L330.15 410.358L330.163 410.371L330.212 410.433L330.237 410.458L330.336 410.569L328.402 410.867C328.687 410.086 328.997 409.304 329.394 408.56C329.58 408.188 329.791 407.816 330.026 407.469C330.237 407.109 330.485 406.762 330.745 406.427C330.981 406.08 331.266 405.77 331.539 405.435C331.812 405.113 332.134 404.803 332.444 404.48L332.841 404.046L333.027 403.811L333.139 403.711L333.164 403.687L333.263 403.674L333.337 403.649L334.354 402.893C334.677 402.62 335.061 402.434 335.421 402.198C335.78 401.975 336.14 401.752 336.537 401.591C336.921 401.417 337.306 401.219 337.69 401.058L338.893 400.624C339.29 400.475 339.712 400.4 340.121 400.289L340.741 400.14L341.373 400.041C342.217 399.892 343.06 399.867 343.916 399.83C344.759 399.867 345.614 399.892 346.458 400.053C346.879 400.115 347.301 400.177 347.71 400.301C348.12 400.413 348.541 400.487 348.938 400.636L350.141 401.07C350.538 401.231 350.91 401.43 351.294 401.603C351.679 401.777 352.051 402 352.41 402.223C352.77 402.446 353.142 402.645 353.477 402.918L354.481 403.687L355.449 404.579C355.796 404.89 356.007 405.175 356.279 405.472L356.664 405.919L356.763 406.03L356.813 406.08L356.862 406.142L356.875 406.154L356.887 406.167L356.912 406.204L357.098 406.464C357.606 407.134 358.04 407.853 358.437 408.597C358.611 408.982 358.809 409.354 358.971 409.738L359.417 410.904L358.04 410.234L359.219 409.974C359.615 409.912 360.012 409.875 360.409 409.825C360.806 409.8 361.203 409.8 361.6 409.8C361.996 409.813 362.393 409.862 362.79 409.9C363.187 409.962 363.571 410.048 363.956 410.11C364.34 410.21 364.712 410.321 365.084 410.433C365.456 410.569 365.816 410.718 366.176 410.867C366.523 411.041 366.87 411.227 367.205 411.413L368.172 412.057C368.47 412.305 368.78 412.541 369.065 412.789C369.338 413.062 369.611 413.322 369.871 413.595C370.119 413.893 370.355 414.178 370.59 414.488C370.801 414.81 371.012 415.12 371.211 415.431C371.384 415.765 371.57 416.088 371.731 416.435C371.868 416.782 372.004 417.129 372.128 417.477L372.339 418.543Z" fill="#E3E3E3"/>
<path d="M295.8 271.019C295.8 291.858 272.691 319.917 272.691 319.917C272.691 319.917 249.582 291.858 249.582 271.019C249.582 250.18 259.923 244.46 272.691 244.46C285.448 244.46 295.8 250.194 295.8 271.019Z" fill="#FF9800"/>
<path d="M288.254 265.165C288.254 278.45 272.691 296.337 272.691 296.337C272.691 296.337 257.128 278.45 257.128 265.165C257.128 251.881 264.093 248.233 272.691 248.233C281.278 248.246 288.254 251.881 288.254 265.165Z" fill="#FFC107"/>
<path d="M281.652 259.852C281.652 268.961 272.696 281.245 272.696 281.245C272.696 281.245 263.73 268.976 263.73 259.852C263.73 250.727 267.74 248.233 272.696 248.233C277.652 248.233 281.652 250.743 281.652 259.852Z" fill="#FFEB3B"/>
<path d="M253.824 207.242C253.824 207.242 222.166 223.859 222.166 259.874C222.166 259.874 224.139 263.832 227.304 259.08C230.469 254.327 233.237 241.271 253.427 241.271L253.824 207.242Z" fill="#CB1B38"/>
<path d="M291.177 207.242C291.177 207.242 322.836 223.859 322.836 259.874C322.836 259.874 320.851 263.832 317.686 259.08C314.521 254.327 311.754 241.271 291.563 241.271L291.177 207.242Z" fill="#CB1B38"/>
<path fill-rule="evenodd" clip-rule="evenodd" d="M253.559 244.921C243.824 229.583 237.361 202.765 237.361 172.253C237.361 157.51 239.842 143.627 243.557 131.486H301.447C305.152 143.627 307.647 157.51 307.647 172.253C307.647 202.765 301.193 229.583 291.444 244.921H253.559Z" fill="white"/>
<path d="M253.825 244.976C253.339 244.976 252.942 245.373 252.942 245.858V249.993C252.942 250.479 253.339 250.876 253.825 250.876H272.504V244.965H253.825V244.976Z" fill="#34414D"/>
<path d="M291.159 244.977H272.501V250.887H291.159C291.644 250.887 292.052 250.49 292.052 250.005V245.87C292.041 245.374 291.644 244.977 291.159 244.977Z" fill="#34414D"/>
<path fill-rule="evenodd" clip-rule="evenodd" d="M272.425 179.217C263.507 179.217 256.289 171.989 256.289 163.083C256.289 154.177 263.507 146.949 272.425 146.949C281.335 146.949 288.556 154.177 288.556 163.083C288.556 171.998 281.327 179.217 272.425 179.217ZM272.425 152.031C266.313 152.031 261.37 156.974 261.37 163.083C261.37 169.182 266.313 174.135 272.425 174.135C278.52 174.135 283.475 169.192 283.475 163.083C283.475 156.974 278.52 152.031 272.425 152.031Z" fill="#34414D"/>
<path d="M272.507 176.487C265.16 176.487 259.217 170.544 259.217 163.2C259.217 155.856 265.16 149.912 272.507 149.912C279.835 149.912 285.792 155.856 285.792 163.2C285.792 170.533 279.835 176.487 272.507 176.487Z" fill="#00B9F2"/>
<path d="M243.561 131.487C251.833 104.415 266.19 86 272.506 86C278.831 86 293.174 104.415 301.455 131.487H243.561Z" fill="#CB1B38"/>
<path d="M273.717 217.1C273.617 217.067 273.518 217.056 273.408 217.056H273.386H272.493V261.473H273.485H273.507C274.059 261.473 274.522 261.021 274.522 260.47V259.124L274.555 257.173L277.356 221.456C277.378 217.817 274.334 217.255 273.717 217.1Z" fill="#CB1B38"/>
<path d="M271.504 217.045H271.482C271.372 217.045 271.273 217.067 271.173 217.089C270.997 217.134 270.798 217.211 270.6 217.321C269.497 217.685 267.623 218.644 267.623 221.478L270.423 257.228L270.457 259.036V260.382C270.457 260.801 270.721 261.165 271.085 261.319C271.228 261.396 271.394 261.44 271.57 261.44H271.592H272.485V217.023H271.504V217.045Z" fill="#CB1B38"/>
</g>
</svg>
